<svg aria-hidden="true" style="position: absolute; width: 0; height: 0; overflow: hidden;" version="1.1" xmlns="http://www.w3.org/2000/svg" xmlns:xlink="http://www.w3.org/1999/xlink">
<defs>
<symbol id="icon-bg-body-mobile" viewBox="0 0 4 32">
<path fill="#0e0e0e" style="fill: var(--color1, #0e0e0e)" d="M0 0h3.676v32h-3.676v-32z"></path>
<path fill="#000" style="fill: var(--color2, #000)" d="M0 0h3.676v32h-3.676v-32z"></path>
</symbol>
<symbol id="icon-bg-body-tablet" viewBox="0 0 10 32">
<path fill="#0e0e0e" style="fill: var(--color1, #0e0e0e)" d="M0 0h9.518v32h-9.518v-32z"></path>
<path fill="#000" style="fill: var(--color2, #000)" opacity="0.03" d="M1.562 2.082c0 0.274-0.222 0.496-0.496 0.496s-0.496-0.222-0.496-0.496c0-0.274 0.222-0.496 0.496-0.496s0.496 0.222 0.496 0.496z"></path>
<path fill="#000" style="fill: var(--color2, #000)" opacity="0.03" d="M8.936 15.17c0 0.274-0.222 0.496-0.496 0.496s-0.496-0.222-0.496-0.496c0-0.274 0.222-0.496 0.496-0.496s0.496 0.222 0.496 0.496z"></path>
<path fill="#000" style="fill: var(--color2, #000)" opacity="0.03" d="M1.562 32c0-0.065-0.013-0.13-0.038-0.19s-0.061-0.115-0.107-0.161c-0.046-0.046-0.101-0.083-0.161-0.108s-0.125-0.038-0.19-0.038-0.13 0.013-0.19 0.038c-0.060 0.025-0.115 0.061-0.161 0.108s-0.083 0.101-0.107 0.161c-0.025 0.060-0.038 0.125-0.038 0.19h0.991z"></path>
<path fill="#000" style="fill: var(--color2, #000)" d="M0 0h9.518v32h-9.518v-32z"></path>
</symbol>
<symbol id="icon-bg-body-desktop" viewBox="0 0 21 32">
<path fill="#0e0e0e" style="fill: var(--color1, #0e0e0e)" d="M0 0h21.223v32h-21.223v-32z"></path>
<path fill="#000" style="fill: var(--color2, #000)" opacity="0.03" d="M3.034 6.698c0 0.623-0.505 1.127-1.127 1.127s-1.127-0.505-1.127-1.127c0-0.623 0.505-1.127 1.127-1.127s1.127 0.505 1.127 1.127z"></path>
<path fill="#000" style="fill: var(--color2, #000)" opacity="0.03" d="M3.034 32c0-0.148-0.029-0.295-0.086-0.431s-0.14-0.261-0.244-0.366c-0.105-0.105-0.229-0.188-0.366-0.244s-0.283-0.086-0.431-0.086-0.295 0.029-0.431 0.086c-0.137 0.057-0.261 0.14-0.366 0.244s-0.188 0.229-0.244 0.366-0.086 0.283-0.086 0.431h2.255z"></path>
<path fill="#000" style="fill: var(--color2, #000)" opacity="0.03" d="M20.444 15.403c0 0.623-0.505 1.127-1.127 1.127s-1.127-0.505-1.127-1.127c0-0.623 0.505-1.127 1.127-1.127s1.127 0.505 1.127 1.127z"></path>
<path fill="#000" style="fill: var(--color2, #000)" d="M0 0h21.223v32h-21.223v-32z"></path>
</symbol>
</defs>
</svg>
